<mxfile host="app.diagrams.net" agent="Mozilla/5.0 (X11; Linux x86_64) AppleWebKit/537.36 (KHTML, like Gecko) Chrome/126.0.0.0 Safari/537.36" version="24.8.4">
  <diagram name="Page-1" id="c4acf3e9-155e-7222-9cf6-157b1a14988f">
    <mxGraphModel dx="1195" dy="652" grid="1" gridSize="10" guides="1" tooltips="1" connect="1" arrows="1" fold="1" page="1" pageScale="1" pageWidth="850" pageHeight="1100" background="none" math="0" shadow="0">
      <root>
        <mxCell id="0" />
        <mxCell id="1" parent="0" />
        <mxCell id="ppViq6x7rqcGXQTuzldO-9" value="" style="rounded=0;whiteSpace=wrap;html=1;fillColor=none;strokeColor=#d3d3d3;strokeWidth=2;" parent="1" vertex="1">
          <mxGeometry x="80" width="720" height="640" as="geometry" />
        </mxCell>
        <mxCell id="5d2195bd80daf111-25" style="edgeStyle=orthogonalEdgeStyle;rounded=0;html=1;dashed=1;labelBackgroundColor=none;startFill=0;endArrow=open;endFill=0;endSize=10;fontFamily=Verdana;fontSize=10;" parent="1" edge="1">
          <mxGeometry relative="1" as="geometry">
            <Array as="points">
              <mxPoint x="370" y="340" />
              <mxPoint x="370" y="300" />
            </Array>
            <mxPoint x="450" y="300" as="targetPoint" />
          </mxGeometry>
        </mxCell>
        <mxCell id="iHnzeZAD3zIwQ1TrcwD3-3" value="&lt;font style=&quot;font-size: 11px;&quot;&gt;Клиент&lt;/font&gt;" style="verticalAlign=top;align=center;spacingTop=8;spacingLeft=2;spacingRight=12;shape=cube;size=10;direction=south;fontStyle=4;html=1;whiteSpace=wrap;" vertex="1" parent="1">
          <mxGeometry x="160" y="160" width="160" height="80" as="geometry" />
        </mxCell>
        <mxCell id="iHnzeZAD3zIwQ1TrcwD3-23" style="edgeStyle=orthogonalEdgeStyle;rounded=0;orthogonalLoop=1;jettySize=auto;html=1;" edge="1" parent="1" source="iHnzeZAD3zIwQ1TrcwD3-4" target="iHnzeZAD3zIwQ1TrcwD3-21">
          <mxGeometry relative="1" as="geometry" />
        </mxCell>
        <mxCell id="iHnzeZAD3zIwQ1TrcwD3-4" value="&lt;font style=&quot;font-size: 11px;&quot;&gt;client app&lt;/font&gt;" style="html=1;dropTarget=0;whiteSpace=wrap;" vertex="1" parent="1">
          <mxGeometry x="185" y="200" width="110" height="30" as="geometry" />
        </mxCell>
        <mxCell id="iHnzeZAD3zIwQ1TrcwD3-5" value="" style="shape=module;jettyWidth=8;jettyHeight=4;" vertex="1" parent="iHnzeZAD3zIwQ1TrcwD3-4">
          <mxGeometry x="1" width="19" height="20" relative="1" as="geometry">
            <mxPoint x="-27" y="7" as="offset" />
          </mxGeometry>
        </mxCell>
        <mxCell id="iHnzeZAD3zIwQ1TrcwD3-7" value="&lt;font style=&quot;font-size: 11px;&quot;&gt;Сервер&lt;/font&gt;" style="verticalAlign=top;align=center;spacingTop=8;spacingLeft=2;spacingRight=12;shape=cube;size=10;direction=south;fontStyle=4;html=1;whiteSpace=wrap;" vertex="1" parent="1">
          <mxGeometry x="370" y="320" width="310" height="160" as="geometry" />
        </mxCell>
        <mxCell id="iHnzeZAD3zIwQ1TrcwD3-8" value="&lt;font style=&quot;font-size: 11px;&quot;&gt;uvicorn&lt;/font&gt;" style="html=1;dropTarget=0;whiteSpace=wrap;" vertex="1" parent="1">
          <mxGeometry x="540" y="360" width="110" height="30" as="geometry" />
        </mxCell>
        <mxCell id="iHnzeZAD3zIwQ1TrcwD3-9" value="" style="shape=module;jettyWidth=8;jettyHeight=4;" vertex="1" parent="iHnzeZAD3zIwQ1TrcwD3-8">
          <mxGeometry x="1" width="19" height="20" relative="1" as="geometry">
            <mxPoint x="-27" y="7" as="offset" />
          </mxGeometry>
        </mxCell>
        <mxCell id="iHnzeZAD3zIwQ1TrcwD3-13" value="&lt;span style=&quot;font-size: 11px;&quot;&gt;y&lt;/span&gt;" style="html=1;dropTarget=0;whiteSpace=wrap;" vertex="1" parent="1">
          <mxGeometry x="540" y="430" width="110" height="30" as="geometry" />
        </mxCell>
        <mxCell id="iHnzeZAD3zIwQ1TrcwD3-14" value="" style="shape=module;jettyWidth=8;jettyHeight=4;" vertex="1" parent="iHnzeZAD3zIwQ1TrcwD3-13">
          <mxGeometry x="1" width="19" height="20" relative="1" as="geometry">
            <mxPoint x="-27" y="7" as="offset" />
          </mxGeometry>
        </mxCell>
        <mxCell id="iHnzeZAD3zIwQ1TrcwD3-15" value="" style="endArrow=open;endSize=8;dashed=1;html=1;rounded=0;" edge="1" parent="1" source="iHnzeZAD3zIwQ1TrcwD3-8" target="iHnzeZAD3zIwQ1TrcwD3-13">
          <mxGeometry width="160" relative="1" as="geometry">
            <mxPoint x="440" y="420" as="sourcePoint" />
            <mxPoint x="600" y="420" as="targetPoint" />
          </mxGeometry>
        </mxCell>
        <mxCell id="iHnzeZAD3zIwQ1TrcwD3-18" value="&lt;font style=&quot;font-size: 11px;&quot;&gt;nginx&lt;/font&gt;" style="html=1;dropTarget=0;whiteSpace=wrap;" vertex="1" parent="1">
          <mxGeometry x="385" y="360" width="110" height="30" as="geometry" />
        </mxCell>
        <mxCell id="iHnzeZAD3zIwQ1TrcwD3-19" value="" style="shape=module;jettyWidth=8;jettyHeight=4;" vertex="1" parent="iHnzeZAD3zIwQ1TrcwD3-18">
          <mxGeometry x="1" width="19" height="20" relative="1" as="geometry">
            <mxPoint x="-27" y="7" as="offset" />
          </mxGeometry>
        </mxCell>
        <mxCell id="iHnzeZAD3zIwQ1TrcwD3-20" value="" style="endArrow=open;endSize=8;dashed=1;html=1;rounded=0;" edge="1" parent="1" source="iHnzeZAD3zIwQ1TrcwD3-18" target="iHnzeZAD3zIwQ1TrcwD3-8">
          <mxGeometry width="160" relative="1" as="geometry">
            <mxPoint x="605" y="400" as="sourcePoint" />
            <mxPoint x="605" y="440" as="targetPoint" />
          </mxGeometry>
        </mxCell>
        <mxCell id="iHnzeZAD3zIwQ1TrcwD3-21" value="" style="ellipse;whiteSpace=wrap;html=1;aspect=fixed;" vertex="1" parent="1">
          <mxGeometry x="450" y="205" width="20" height="20" as="geometry" />
        </mxCell>
        <mxCell id="iHnzeZAD3zIwQ1TrcwD3-22" value="&lt;font style=&quot;font-size: 9px;&quot;&gt;HTTPS&lt;/font&gt;" style="text;html=1;align=center;verticalAlign=middle;whiteSpace=wrap;rounded=0;" vertex="1" parent="1">
          <mxGeometry x="440" y="185" width="40" height="20" as="geometry" />
        </mxCell>
        <mxCell id="iHnzeZAD3zIwQ1TrcwD3-26" value="" style="endArrow=none;html=1;rounded=0;" edge="1" parent="1">
          <mxGeometry width="50" height="50" relative="1" as="geometry">
            <mxPoint x="425" y="270" as="sourcePoint" />
            <mxPoint x="425" y="360" as="targetPoint" />
          </mxGeometry>
        </mxCell>
        <mxCell id="iHnzeZAD3zIwQ1TrcwD3-27" value="" style="ellipse;whiteSpace=wrap;html=1;aspect=fixed;" vertex="1" parent="1">
          <mxGeometry x="415" y="260" width="20" height="20" as="geometry" />
        </mxCell>
        <mxCell id="iHnzeZAD3zIwQ1TrcwD3-29" value="&lt;font style=&quot;font-size: 9px;&quot;&gt;WebSockets&lt;/font&gt;" style="text;html=1;align=center;verticalAlign=middle;whiteSpace=wrap;rounded=0;" vertex="1" parent="1">
          <mxGeometry x="405" y="240" width="40" height="20" as="geometry" />
        </mxCell>
        <mxCell id="iHnzeZAD3zIwQ1TrcwD3-30" style="edgeStyle=orthogonalEdgeStyle;rounded=0;orthogonalLoop=1;jettySize=auto;html=1;" edge="1" parent="1" source="iHnzeZAD3zIwQ1TrcwD3-4" target="iHnzeZAD3zIwQ1TrcwD3-27">
          <mxGeometry relative="1" as="geometry">
            <mxPoint x="200" y="269.65999999999997" as="sourcePoint" />
            <mxPoint x="335" y="269.65999999999997" as="targetPoint" />
            <Array as="points">
              <mxPoint x="240" y="270" />
            </Array>
          </mxGeometry>
        </mxCell>
        <mxCell id="iHnzeZAD3zIwQ1TrcwD3-31" value="" style="endArrow=none;html=1;rounded=0;" edge="1" parent="1">
          <mxGeometry width="50" height="50" relative="1" as="geometry">
            <mxPoint x="459.43" y="225" as="sourcePoint" />
            <mxPoint x="459.7360000000001" y="360" as="targetPoint" />
          </mxGeometry>
        </mxCell>
      </root>
    </mxGraphModel>
  </diagram>
</mxfile>
